<svg xmlns="http://www.w3.org/2000/svg" xmlns:xlink="http://www.w3.org/1999/xlink" version="1.1" x="0px" y="0px" viewBox="0 0 100 125" enable-background="new 0 0 100 100" xml:space="preserve"><g><g><path fill="#000000" d="M76.509,47.302c2.236,0,4.091,1.799,4.091,4.088c0,2.235-1.855,4.088-4.091,4.088h-3.218    c-2.291,0-4.091-1.853-4.091-4.088c0-2.29,1.8-4.088,4.091-4.088H76.509z"/><path fill="#000000" d="M50.055,47.465c9.436,0,17.127,7.577,17.127,17.008s-7.691,16.953-17.127,17.008    c-9.436-0.055-17.182-7.577-17.182-17.008S40.618,47.465,50.055,47.465z M59,64.473c0-4.852-3.982-8.831-8.945-8.831    c-5.018,0-9,3.979-9,8.831c0,4.797,3.982,8.831,9,8.831C55.018,73.304,59,69.27,59,64.473z"/><path fill="#000000" d="M52.945,6.199l11.073,11.066c1.636,1.635,1.636,4.197,0,5.778c-1.582,1.635-4.2,1.635-5.782,0    l-4.091-4.088v17.553c0,2.235-1.855,4.088-4.091,4.088c-2.291,0-4.091-1.853-4.091-4.088V18.955l-4.145,4.088    c-1.582,1.635-4.145,1.635-5.782,0c-1.582-1.581-1.582-4.197,0-5.778L47.164,6.199c0.327-0.273,0.655-0.545,0.982-0.709    c0.327-0.218,0.709-0.327,1.091-0.436C49.509,5.055,49.782,5,50.055,5s0.545,0.055,0.818,0.055    c0.382,0.109,0.764,0.218,1.091,0.436C52.291,5.654,52.618,5.927,52.945,6.199z"/><path fill="#000000" d="M80.545,95H19.509C11.491,94.945,5,88.459,5,80.5V46.92c0-8.013,6.545-14.446,14.509-14.446h11.509    c2.236,0,4.091,1.799,4.091,4.088c0,2.235-1.855,4.088-4.091,4.088H19.509c-3.491,0-6.327,2.835-6.327,6.269V80.5    c0,1.69,0.709,3.271,1.855,4.416c1.2,1.199,2.727,1.908,4.473,1.908h61.036c3.436,0,6.273-2.889,6.273-6.323V46.92    c0-3.489-2.782-6.269-6.273-6.269H68.982c-2.236,0-4.091-1.853-4.091-4.088c0-2.29,1.855-4.088,4.091-4.088h11.564    C88.509,32.474,95,38.907,95,46.92V80.5C95,88.459,88.564,94.945,80.545,95z"/></g></g><text x="0" y="115" fill="#000000" font-size="5px" font-weight="bold" font-family="'Helvetica Neue', Helvetica, Arial-Unicode, Arial, Sans-serif">Created by Viktor Ostrovsky</text><text x="0" y="120" fill="#000000" font-size="5px" font-weight="bold" font-family="'Helvetica Neue', Helvetica, Arial-Unicode, Arial, Sans-serif">from the Noun Project</text></svg>