<svg version="1.1" xmlns="http://www.w3.org/2000/svg" xmlns:xlink="http://www.w3.org/1999/xlink" x="0px" y="0px" viewBox="0 0 5 5" xml:space="preserve"><g class="nc-icon-wrapper"><path fill="#E6E6E6" d="M2.5 3.85c-1.29 0-2.13-1.24-2.17-1.29a0.1 0.1 0 0 1-0.01-0.12c0.04-0.06 0.87-1.29 2.17-1.29 1.28 0 2.13 1.24 2.17 1.29a0.1 0.1 0 0 1 0 0.12c-0.04 0.06-0.88 1.29-2.17 1.29z"/><path fill="#A67C52" d="M2.5 1.35a0.94 0.94 0 1 0 0 1.87 0.94 0.94 0 1 0 0-1.87z"/><path fill="#444444" d="M2.5 1.76a0.52 0.52 0 1 0 0 1.04 0.52 0.52 0 1 0 0-1.04z"/><path fill="#FFFFFF" d="M2.13 1.76a0.26 0.26 0 1 0 0 0.52 0.26 0.26 0 1 0 0-0.52z"/></g></svg>