<svg xmlns="http://www.w3.org/2000/svg" xmlns:xlink="http://www.w3.org/1999/xlink" x="0px" y="0px" viewBox="0 0 30 30"><g class="nc-icon-wrapper"><path d="M1.26 22.05a0.63 0.63 0 0 0-0.63 0.63v6.3a0.63 0.63 0 0 0 0.63 0.63h27.72a0.63 0.63 0 0 0 0.63-0.63v-6.3a0.63 0.63 0 0 0-1.26 0v5.67h-26.46v-5.67a0.63 0.63 0 0 0-0.63-0.63z" fill="#b3b3b3"/><path d="M15.62 0.87a0.65 0.65 0 0 0-1 0l-6.93 8.82a0.63 0.63 0 0 0 0.5 1.02h5.67v13.23a0.63 0.63 0 0 0 0.63 0.63h1.26a0.63 0.63 0 0 0 0.63-0.63v-13.23h5.67a0.63 0.63 0 0 0 0.5-1.02z" fill="#72c472"/></g></svg>