<svg version="1.1" xmlns="http://www.w3.org/2000/svg" xmlns:xlink="http://www.w3.org/1999/xlink" x="0px" y="0px" viewBox="0 0 30 30" xml:space="preserve"><g class="nc-icon-wrapper"><path fill="#444444" d="M23.31 29.61h-16.38a2.52 2.52 0 0 1-2.52-2.52v-20.79a0.63 0.63 0 0 1 0.63-0.63h20.16a0.63 0.63 0 0 1 0.63 0.63v20.79a2.52 2.52 0 0 1-2.52 2.52z"/><path fill="#282828" d="M15.12 24.57a0.63 0.63 0 0 1-0.63-0.63v-11.34a0.63 0.63 0 1 1 1.26 0v11.34a0.63 0.63 0 0 1-0.63 0.63z"/><path fill="#282828" d="M10.08 24.57a0.63 0.63 0 0 1-0.63-0.63v-11.34a0.63 0.63 0 1 1 1.26 0v11.34a0.63 0.63 0 0 1-0.63 0.63z"/><path fill="#282828" d="M20.16 24.57a0.63 0.63 0 0 1-0.63-0.63v-11.34a0.63 0.63 0 1 1 1.26 0v11.34a0.63 0.63 0 0 1-0.63 0.63z"/><path fill="#B3B3B3" d="M28.98 5.67h-9.45v-4.41a0.63 0.63 0 0 0-0.63-0.63h-7.56a0.63 0.63 0 0 0-0.63 0.63v4.41h-9.45a0.63 0.63 0 1 0 0 1.26h27.72a0.63 0.63 0 1 0 0-1.26z m-17.01-3.78h6.3v3.78h-6.3v-3.78z"/></g></svg>